HIERARCHY
ROOT pelvis
{
  OFFSET 0 100 0
  CHANNELS 6 Xposition Yposition Zposition Zrotation Xrotation Yrotation
  JOINT pelvis_right_femur
  {
    OFFSET -10.78128 -3.44521 -0.5502486
    CHANNELS 3 Zrotation Xrotation Yrotation
    JOINT right_femur_tibia
    {
      OFFSET -0.8047443 -44.0398 -0.1307829
      CHANNELS 3 Zrotation Xrotation Yrotation
      JOINT right_tibia_foot
      {
        OFFSET 3.006224 -47.83518 -5
        CHANNELS 3 Zrotation Xrotation Yrotation
        End Site
        {
          OFFSET 0 -5 15
        }
      }
    }
  }
  JOINT pelvis_left_femur
  {
    OFFSET 10.78128 -3.44521 -0.5502486
    CHANNELS 3 Zrotation Xrotation Yrotation
    JOINT left_femur_tibia
    {
      OFFSET 0.8047443 -44.0398 -0.1307829
      CHANNELS 3 Zrotation Xrotation Yrotation
      JOINT left_tibia_foot
      {
        OFFSET -4.370144 -48.10324 -4.275266
        CHANNELS 3 Zrotation Xrotation Yrotation
        End Site
        {
          OFFSET 0 -5 15
        }
      }
    }
  }
  JOINT pelvis_spine1
  {
    OFFSET 0 6.468898 -3.129235
    CHANNELS 3 Zrotation Xrotation Yrotation
    JOINT spine1
    {
      OFFSET 0 23.15396 4.99043
      CHANNELS 3 Zrotation Xrotation Yrotation
      JOINT spine2
      {
        OFFSET 0 20.79997 -5.064912
        CHANNELS 3 Zrotation Xrotation Yrotation
        JOINT neck
        {
          OFFSET 0 14.38658 9.616178
          CHANNELS 3 Zrotation Xrotation Yrotation
          End Site
          {
            OFFSET 0 20 0
          }
        }
      }
      JOINT right_manubrium
      {
        OFFSET -5.722621 16.35077 3.967754
        CHANNELS 3 Zrotation Xrotation Yrotation
        JOINT right_clavicle
        {
          OFFSET -13.16364 1.694482 -4.693211
          CHANNELS 3 Zrotation Xrotation Yrotation
          JOINT right_humerus
          {
            OFFSET -28.5034 -0.3100689 -2.792744
            CHANNELS 3 Zrotation Xrotation Yrotation
            JOINT right_radius
            {
              OFFSET -25.15693 0.02248979 -1.271978
              CHANNELS 3 Zrotation Xrotation Yrotation
              End Site
              {
                OFFSET -15 0 0
              }
            }
          }
        }
      }
      JOINT left_manubrium
      {
        OFFSET 5.722621 16.35077 3.967754
        CHANNELS 3 Zrotation Xrotation Yrotation
        JOINT left_clavicle
        {
          OFFSET 13.16364 1.694482 -4.693211
          CHANNELS 3 Zrotation Xrotation Yrotation
          JOINT left_humerus
          {
            OFFSET 29.39168 -1.063119 -2.237045
            CHANNELS 3 Zrotation Xrotation Yrotation
            JOINT left_radius
            {
              OFFSET 24.59957 -0.9528479 0.9047498
              CHANNELS 3 Zrotation Xrotation Yrotation
              End Site
              {
                OFFSET 15 -0 -0
              }
            }
          }
        }
      }
    }
  }
}
MOTION
Frames: 23
Frame Time: 0.0416666666667
-1832.823 104.0628 1911.165 -10.25652 3.586194 -106.3474 5.072343 -13.50625 -9.415727 -0 5.713306 -0 -18.67264 12.15977 2.841489 -2.382964 9.813243 -3.031756 -0 41.07734 -0 4.51959 -7.867661 12.89691 1.161642 -2.758925 2.626499 0.5868032 16.86844 -7.443288 1.00039 23.20697 4.370985 3.641732 -19.12536 4.208445 -4.974478 -20.84371 12.31399 98.46856 11.47499 -21.86507 -0 0 4.964918 -25.66913 9.594729 9.962395 6.770005 -30.48413 -10.82509 -86.5392 3.089454 12.44566 0 0 -18.83497 25.89801 13.80931 -20.51374
-1839.579 104.6863 1908.903 -10.33595 3.713037 -106.9238 5.59737 -9.83542 -8.767924 -0 4.897844 -0 -17.74723 10.46998 2.44705 -1.663463 6.087656 -2.339283 -0 43.27358 -0 3.558313 -6.583581 12.95765 1.269136 -2.500845 3.178295 0.4177124 16.6858 -7.020127 1.095678 23.18518 4.209968 3.532284 -18.78684 4.125683 -4.817596 -21.08164 12.32224 97.49581 11.93567 -20.66072 -0 0 6.206356 -26.05659 9.956262 10.42145 6.517179 -29.69482 -10.46321 -86.89543 3.703071 13.47814 0 0 -17.86765 24.37539 13.78661 -18.64939
-1846.34 105.2487 1906.654 -10.19787 3.788046 -107.603 6.021289 -5.910561 -8.077229 -0 4.143753 -0 -16.89903 8.234003 2.215352 -0.8715047 1.912157 -1.914955 -0 43.32159 -0 2.911074 -5.557302 13.37738 1.297301 -2.309329 3.792466 0.2595799 16.43827 -6.57473 1.159904 23.10942 4.08214 3.427444 -18.61702 4.08185 -4.61225 -21.63146 12.31241 96.25754 12.6116 -19.17524 -0 0 7.978111 -26.27992 10.19579 10.9393 6.302766 -28.81155 -9.994247 -87.4916 4.516376 15.0356 0 0 -16.61329 22.7996 13.88368 -16.68884
-1853.027 105.6325 1904.466 -9.88931 3.80891 -108.3645 6.308581 -1.91474 -7.395653 -0 3.598547 -0 -16.17598 5.669909 2.169304 -0.08238399 -2.469578 -1.743914 -0 41.31836 -0 2.603213 -4.822059 14.10491 1.246371 -2.19397 4.429219 0.1105372 16.15385 -6.124119 1.192061 22.99365 3.991833 3.333108 -18.60266 4.074882 -4.383599 -22.45071 12.28744 94.84193 13.40916 -17.4705 -0 0 10.15022 -26.36803 10.30095 11.49792 6.128962 -27.88631 -9.464445 -88.30945 5.42004 17.01135 0 0 -15.12037 21.27772 14.0767 -14.77334
-1859.581 105.7497 1902.383 -9.471305 3.779338 -109.1833 6.451129 2.039028 -6.748353 -0 3.371279 -0 -15.57701 2.975392 2.291653 0.6476036 -6.87768 -1.784229 -0 37.61253 -0 2.603273 -4.352127 15.06712 1.12564 -2.149157 5.059466 -0.03483738 15.85468 -5.676714 1.197054 22.85424 3.937049 3.25148 -18.70838 4.099671 -4.14998 -23.47152 12.25114 93.32779 14.24608 -15.60722 -0 0 12.5841 -26.36479 10.28306 12.0848 5.989097 -26.95155 -8.912109 -89.31199 6.323384 19.27873 0 0 -13.44385 19.86307 14.33771 -12.97829
-1865.96 105.5476 1900.439 -8.994991 3.707398 -110.0352 6.46122 5.838813 -6.138427 -0 3.483426 -0 -15.07478 0.301315 2.538028 1.280844 -11.15307 -1.988579 -0 32.70077 -0 2.841692 -4.099906 16.17817 0.9509422 -2.159992 5.660509 -0.1768819 15.5534 -5.242812 1.182279 22.70478 3.913252 3.182439 -18.89549 4.150811 -3.919123 -24.60797 12.20776 91.78423 15.06788 -13.66438 -0 0 15.13507 -26.30111 10.17029 12.67982 5.875107 -26.03197 -8.363682 -90.44314 7.172095 21.69428 0 0 -11.66755 18.56882 14.63862 -11.32641
-1872.145 105.013 1898.649 -8.511367 3.605501 -110.8969 6.354162 9.33512 -5.560077 -0 3.953795 -0 -14.62565 -2.194578 2.844161 1.781676 -15.09688 -2.312429 -0 27.20031 -0 3.219957 -4.017213 17.33652 0.7394546 -2.204121 6.205711 -0.3131778 15.25651 -4.836578 1.15754 22.55998 3.916727 3.124845 -19.11843 4.225393 -3.690442 -25.7464 12.16042 90.28767 15.83879 -11.75068 -0 0 17.62864 -26.2023 10.00205 13.25385 5.778249 -25.14925 -7.841745 -91.616 7.943142 24.07596 0 0 -9.905876 17.38665 14.94385 -9.811318
-1878.143 104.1789 1897.01 -8.089311 3.492691 -111.7427 6.13769 12.35679 -5.015182 -0 4.883893 -0 -14.18138 -4.295583 3.136622 2.108872 -18.4568 -2.711521 -0 21.81995 -0 3.62375 -4.057702 18.42655 0.5062203 -2.254052 6.659832 -0.4455001 14.97248 -4.471544 1.135211 22.44051 3.944962 3.077541 -19.31698 4.322426 -3.46361 -26.74773 12.10987 88.93678 16.52122 -9.997398 -0 0 19.85311 -26.10981 9.821087 13.77732 5.687794 -24.32379 -7.375233 -92.70759 8.626221 26.1997 0 0 -8.28193 16.31119 15.20529 -8.43018
-1883.995 103.1265 1895.493 -7.815209 3.394662 -112.5419 5.813032 14.76348 -4.525359 -0 6.45984 -0 -13.7088 -5.738639 3.35153 2.224736 -20.97923 -3.140089 -0 17.23428 -0 3.952148 -4.175662 19.33826 0.2625395 -2.28404 6.984868 -0.5837756 14.71796 -4.154978 1.127851 22.37184 3.995319 3.040085 -19.42265 4.439954 -3.247682 -27.47853 12.05402 87.84677 17.0639 -8.530698 -0 0 21.59555 -26.08941 9.661094 14.23147 5.592646 -23.57581 -7.00196 -93.5785 9.204706 27.84087 0 0 -6.890873 15.36291 15.37177 -7.213776
-1889.768 101.974 1894.052 -7.769965 3.337785 -113.2591 5.381052 16.49067 -4.131735 -0 8.880163 -0 -13.20639 -6.287049 3.453197 2.108877 -22.48729 -3.557798 -0 13.88829 -0 4.153287 -4.33251 19.99863 0.01492985 -2.279325 7.151458 -0.7436173 14.51703 -3.88585 1.143901 22.37682 4.064451 3.01319 -19.3795 4.573283 -3.063423 -27.85506 11.989 87.12244 17.40767 -7.436414 -0 0 22.70379 -26.2151 9.53464 14.61454 5.485943 -22.92503 -6.761016 -94.11374 9.645349 28.84063 0 0 -5.770103 14.59563 15.4097 -6.23547
-1895.543 100.8563 1892.636 -8.003681 3.340139 -113.8562 4.845284 17.54817 -3.883714 -0 12.27938 -0 -12.70552 -5.797669 3.440633 1.761197 -22.91655 -3.941155 -0 11.87963 -0 4.240994 -4.50813 20.38979 -0.2352293 -2.240951 7.145515 -0.939879 14.39473 -3.658 1.18485 22.4685 4.149323 2.998807 -19.16259 4.715987 -2.937389 -27.86495 11.91119 86.83169 17.50105 -6.74326 -0 0 23.12292 -26.54286 9.430106 14.9383 5.368712 -22.38987 -6.682563 -94.25595 9.899439 29.14457 0 0 -4.898848 14.08481 15.31724 -5.595198
-1901.4 99.90623 1891.198 -8.528638 3.405827 -114.2931 4.209674 17.97093 -3.826293 -0 16.70604 -0 -12.25662 -4.227358 3.338331 1.191523 -22.27758 -4.289048 -0 11.01454 -0 4.279434 -4.708708 20.53844 -0.4908775 -2.182537 6.964487 -1.181215 14.37056 -3.46629 1.246028 22.64893 4.248976 2.999891 -18.7794 4.862681 -2.892942 -27.54922 11.81891 87.0013 17.31171 -6.437862 -0 0 22.87586 -27.09533 9.319871 15.217 5.249622 -21.98786 -6.783803 -94.00611 9.913389 28.78324 0 0 -4.228515 13.90745 15.11961 -5.393308
-1907.401 99.24298 1889.705 -9.324046 3.523501 -114.5294 3.476589 17.75321 -3.99187 -0 22.12647 -0 -11.91287 -1.604534 3.180358 0.4082729 -20.58547 -4.620115 -0 10.95946 -0 4.351638 -4.970146 20.48943 -0.7571432 -2.123073 6.608837 -1.466088 14.45412 -3.313505 1.319206 22.91153 4.36591 3.019956 -18.26137 5.011491 -2.942614 -26.96572 11.71314 87.62835 16.83341 -6.497902 -0 0 22.01526 -27.85604 9.173526 15.45372 5.142827 -21.73832 -7.069718 -93.40205 9.64568 27.82265 0 0 -3.725542 14.12501 14.85335 -5.708092
-1913.585 98.96291 1888.139 -10.32558 3.664469 -114.5303 2.655155 16.7976 -4.392458 -0 28.35018 -0 -11.72379 1.951071 3.000719 -0.5770071 -17.82832 -4.967643 -0 11.34585 -0 4.53513 -5.36094 20.28787 -1.036649 -2.082485 6.080587 -1.775007 14.63975 -3.218452 1.393308 23.23863 4.505994 3.062428 -17.66626 5.164386 -3.080983 -26.17029 11.59845 88.6793 16.10175 -6.91912 -0 0 20.6009 -28.75211 8.97021 15.62618 5.068173 -21.66763 -7.528466 -92.50756 9.091808 26.33997 0 0 -3.411819 14.76784 14.55798 -6.57365
-1919.941 99.11744 1886.503 -11.38548 3.780614 -114.2837 1.788457 14.90893 -5.004893 -0 34.80042 -0 -11.74002 6.106964 2.834992 -1.717637 -14.02963 -5.372199 -0 11.79616 -0 4.88637 -5.976343 19.97855 -1.31932 -2.081511 5.398044 -2.055945 14.89773 -3.224588 1.452181 23.58978 4.674848 3.129321 -17.09955 5.32338 -3.27676 -25.23228 11.48566 90.05844 15.22598 -7.722654 -0 0 18.73189 -29.61533 8.711267 15.67396 5.05425 -21.81511 -8.114371 -91.42723 8.321607 24.45281 0 0 -3.396791 15.81083 14.28369 -7.944852
-1926.405 99.67473 1884.817 -12.24374 3.816548 -113.8267 0.9909314 11.88661 -5.754669 -0 40.26509 -0 -12.01668 10.18318 2.724758 -2.88352 -9.401587 -5.859523 -0 11.99866 -0 5.415826 -6.893007 19.6073 -1.567381 -2.140197 4.622448 -2.216605 15.17085 -3.39769 1.473979 23.89134 4.868031 3.218904 -16.72619 5.480832 -3.473487 -24.26503 11.39464 91.5738 14.40427 -8.938186 -0 0 16.6045 -30.16767 8.433128 15.50267 5.136508 -22.23103 -8.731515 -90.31984 7.504706 22.36997 0 0 -3.875375 17.14771 14.10131 -9.663357
-1932.87 100.4978 1883.101 -12.62009 3.75063 -113.2524 0.4403515 7.732659 -6.533756 -0 43.15796 -0 -12.59885 13.32016 2.708177 -3.865215 -4.430276 -6.398008 -0 11.94941 -0 6.058255 -8.074383 19.19827 -1.713258 -2.268427 3.860694 -2.159795 15.40078 -3.791418 1.440383 24.05908 5.059987 3.324309 -16.70693 5.609312 -3.621019 -23.41239 11.35057 92.99355 13.83832 -10.56401 -0 0 14.48586 -30.13855 8.200154 15.03292 5.339199 -22.95628 -9.263058 -89.35098 6.838128 20.36032 0 0 -5.032266 18.62181 14.07701 -11.5077
-1939.237 101.3881 1881.357 -12.42199 3.627221 -112.669 0.2692488 2.758227 -7.274406 -0 42.53983 -0 -13.50558 15.06029 2.806136 -4.497103 0.3564984 -6.890293 -0 12.04188 -0 6.709639 -9.344945 18.73095 -1.695866 -2.459644 3.205343 -1.85736 15.57962 -4.399208 1.350164 24.05745 5.211962 3.43736 -17.07837 5.669516 -3.726032 -22.77039 11.37064 94.21232 13.56076 -12.53602 -0 0 12.55136 -29.48022 8.054971 14.26905 5.654325 -23.99755 -9.65731 -88.59698 6.367602 18.60026 0 0 -6.882742 20.15162 14.21303 -13.37239
-1945.448 102.1664 1879.558 -11.78594 3.520387 -112.1575 0.4675367 -2.616415 -7.988152 -0 38.69797 -0 -14.73585 15.60248 3.029547 -4.765106 4.709364 -7.248989 -0 12.64503 -0 7.325745 -10.52549 18.1781 -1.504087 -2.702475 2.678149 -1.364538 15.75266 -5.160501 1.216152 23.91751 5.299187 3.554115 -17.74678 5.636703 -3.846736 -22.35204 11.45439 95.29859 13.41831 -14.74412 -0 0 10.80655 -28.3814 7.97952 13.29506 6.05046 -25.32543 -9.955865 -88.0336 5.953008 17.10515 0 0 -9.249324 21.79252 14.44173 -15.34528
-1951.482 102.7202 1877.669 -10.91862 3.480124 -111.77 0.9325505 -7.999929 -8.696818 -0 32.59467 -0 -16.2327 15.39053 3.364691 -4.749214 8.563354 -7.437075 -0 13.87431 -0 7.90119 -11.51006 17.54226 -1.16997 -2.981153 2.262412 -0.7657866 15.96096 -5.997398 1.056006 23.69513 5.318156 3.670842 -18.57732 5.511884 -4.029939 -22.12336 11.58826 96.34057 13.24433 -17.04632 -0 0 9.206764 -27.08811 7.934611 12.22086 6.487493 -26.86358 -10.2181 -87.61257 5.449319 15.83101 0 0 -11.87756 23.59011 14.67309 -17.50443
-1957.354 103.0161 1875.654 -10.02476 3.524833 -111.5362 1.551486 -12.92721 -9.370216 -0 25.3995 -0 -17.82211 14.81715 3.740719 -4.544349 11.79685 -7.421228 -0 15.84577 -0 8.364864 -12.20242 16.83237 -0.7433206 -3.257556 1.9504 -0.1516773 16.20935 -6.816415 0.8948919 23.4484 5.274424 3.776739 -19.41421 5.314563 -4.277921 -22.01396 11.75167 97.34332 12.95492 -19.25134 -0 0 7.743354 -25.83669 7.914773 11.16873 6.908977 -28.45983 -10.4705 -87.29266 4.818224 14.73865 0 0 -14.48753 25.43023 14.81996 -19.72575
-1963.123 103.1051 1873.479 -9.315885 3.652729 -111.4602 2.22601 -16.80633 -9.930288 -0 18.43399 -0 -19.21687 14.22186 4.038614 -4.24614 14.18124 -7.143983 -0 18.80061 -0 8.557801 -12.47827 16.04745 -0.283404 -3.467173 1.750028 0.3768391 16.4724 -7.50207 0.7675824 23.23854 5.17685 3.854246 -20.07117 5.076584 -4.554535 -21.91573 11.91894 98.23707 12.54369 -21.11905 -0 0 6.44338 -24.86749 7.958363 10.27719 7.238502 -29.88566 -10.71106 -87.03146 4.117208 13.79191 0 0 -16.76994 27.03195 14.81873 -21.67892
-1968.895 103.1118 1871.118 -8.966734 3.849923 -111.5237 2.885554 -19.07112 -10.28744 -0 12.90437 -0 -20.1167 13.85188 4.142026 -3.933521 15.46288 -6.553582 -0 22.94145 -0 8.312206 -12.22478 15.19559 0.1515436 -3.542767 1.675938 0.7281922 16.71058 -7.94392 0.707924 23.11709 5.036647 3.886636 -20.3799 4.833877 -4.80574 -21.72334 12.06526 98.91938 12.06454 -22.42179 -0 0 5.361854 -24.37695 8.121111 9.671842 7.40322 -30.90322 -10.921 -86.79328 3.456769 12.97268 0 0 -18.44298 28.06478 14.65879 -22.96955
